<svg width="333" height="59" viewBox="0 0 333 59" fill="none" xmlns="http://www.w3.org/2000/svg">
<path d="M0.3525 47V0.279999H12.3845C16.2672 0.279999 19.3605 1.368 21.6645 3.544C24.0112 5.72 25.1845 8.64266 25.1845 12.312C25.1845 14.488 24.7578 16.408 23.9045 18.072C23.0938 19.736 21.9418 21.0373 20.4485 21.976C18.9552 22.872 17.1632 23.32 15.0725 23.32V22.68C17.3765 22.68 19.3605 23.1493 21.0245 24.088C22.7312 25.0267 24.0325 26.3707 24.9285 28.12C25.8672 29.8267 26.3365 31.8533 26.3365 34.2C26.3365 36.8027 25.7818 39.064 24.6725 40.984C23.5632 42.904 21.9632 44.3973 19.8725 45.464C17.8245 46.488 15.3925 47 12.5765 47H0.3525ZM3.5525 44.056H12.5765C15.8618 44.056 18.4432 43.1813 20.3205 41.432C22.1978 39.6827 23.1365 37.2933 23.1365 34.264C23.1365 31.2347 22.1978 28.8453 20.3205 27.096C18.4432 25.304 15.8618 24.408 12.5765 24.408H3.5525V44.056ZM3.5525 21.528H12.3845C15.4138 21.528 17.7605 20.7173 19.4245 19.096C21.1312 17.4747 21.9845 15.2347 21.9845 12.376C21.9845 9.51733 21.1312 7.27733 19.4245 5.656C17.7178 4.03467 15.3712 3.224 12.3845 3.224H3.5525V21.528ZM50.9515 47.64C48.3488 47.64 46.1088 47.128 44.2315 46.104C42.3542 45.0373 40.9035 43.544 39.8795 41.624C38.8982 39.704 38.4075 37.4427 38.4075 34.84V23.96C38.4075 21.3573 38.8982 19.1173 39.8795 17.24C40.9035 15.32 42.3542 13.8267 44.2315 12.76C46.1088 11.6933 48.3488 11.16 50.9515 11.16C53.5542 11.16 55.7728 11.6933 57.6075 12.76C59.4422 13.8267 60.8502 15.32 61.8315 17.24C62.8555 19.1173 63.3675 21.3573 63.3675 23.96V30.04H41.6075V34.84C41.6075 37.912 42.4182 40.344 44.0395 42.136C45.6608 43.928 47.9648 44.824 50.9515 44.824C53.3408 44.824 55.3035 44.248 56.8395 43.096C58.4182 41.944 59.5062 40.3653 60.1035 38.36H63.3035C62.6635 41.2187 61.2555 43.48 59.0795 45.144C56.9462 46.808 54.2368 47.64 50.9515 47.64ZM60.1675 27.864V23.96C60.1675 20.888 59.3568 18.456 57.7355 16.664C56.1568 14.872 53.8955 13.976 50.9515 13.976C47.9648 13.976 45.6608 14.872 44.0395 16.664C42.4182 18.4133 41.6075 20.8453 41.6075 23.96V27.288H60.8715L60.1675 27.864ZM79.0225 27.288V24.408H99.5025V27.288H79.0225ZM131.798 47C129.878 47 128.256 46.68 126.934 46.04C125.611 45.3573 124.587 44.376 123.862 43.096C123.179 41.7733 122.838 40.1947 122.838 38.36V3.16H111.638V0.279999H126.038V38.36C126.038 40.2373 126.528 41.6667 127.51 42.648C128.491 43.6293 129.92 44.12 131.798 44.12H142.998V47H131.798ZM166.077 47.64C163.474 47.64 161.234 47.128 159.357 46.104C157.479 45.0373 156.029 43.544 155.005 41.624C154.023 39.704 153.533 37.4427 153.533 34.84V23.96C153.533 21.3573 154.023 19.1173 155.005 17.24C156.029 15.32 157.479 13.8267 159.357 12.76C161.234 11.6933 163.474 11.16 166.077 11.16C168.679 11.16 170.898 11.6933 172.733 12.76C174.567 13.8267 175.975 15.32 176.957 17.24C177.981 19.1173 178.493 21.3573 178.493 23.96V30.04H156.733V34.84C156.733 37.912 157.543 40.344 159.165 42.136C160.786 43.928 163.09 44.824 166.077 44.824C168.466 44.824 170.429 44.248 171.965 43.096C173.543 41.944 174.631 40.3653 175.229 38.36H178.429C177.789 41.2187 176.381 43.48 174.205 45.144C172.071 46.808 169.362 47.64 166.077 47.64ZM175.293 27.864V23.96C175.293 20.888 174.482 18.456 172.861 16.664C171.282 14.872 169.021 13.976 166.077 13.976C163.09 13.976 160.786 14.872 159.165 16.664C157.543 18.4133 156.733 20.8453 156.733 23.96V27.288H175.997L175.293 27.864ZM196.324 58.52V55.64H205.604C208.121 55.64 210.041 54.9787 211.364 53.656C212.686 52.376 213.348 50.4773 213.348 47.96V45.08V37.72H212.196L213.796 34.84C213.796 37.7413 212.857 40.0667 210.98 41.816C209.102 43.5653 206.628 44.44 203.556 44.44C200.057 44.44 197.241 43.288 195.108 40.984C192.974 38.6373 191.908 35.544 191.908 31.704V23.96C191.908 20.12 192.974 17.0267 195.108 14.68C197.241 12.3333 200.057 11.16 203.556 11.16C206.628 11.16 209.102 12.0347 210.98 13.784C212.857 15.5333 213.796 17.8587 213.796 20.76L212.516 17.88H213.348V11.8H216.548V47.96C216.548 51.4587 215.609 54.0827 213.732 55.832C211.897 57.624 209.188 58.52 205.604 58.52H196.324ZM204.196 41.688C207.097 41.688 209.337 40.8133 210.916 39.064C212.537 37.272 213.348 34.8187 213.348 31.704V23.96C213.348 20.8027 212.537 18.3493 210.916 16.6C209.337 14.808 207.097 13.912 204.196 13.912C201.337 13.912 199.097 14.808 197.476 16.6C195.897 18.3493 195.108 20.8027 195.108 23.96V31.704C195.108 34.8187 195.897 37.272 197.476 39.064C199.097 40.8133 201.337 41.688 204.196 41.688ZM240.779 47.64C237.152 47.64 234.251 46.68 232.075 44.76C229.899 42.84 228.811 40.3013 228.811 37.144C228.811 34.1147 229.813 31.704 231.819 29.912C233.824 28.0773 236.469 27.16 239.755 27.16H251.851V23C251.851 20.184 251.083 18.008 249.547 16.472C248.011 14.8933 245.835 14.104 243.019 14.104C240.459 14.104 238.347 14.744 236.683 16.024C235.019 17.2613 234.037 18.9467 233.739 21.08H230.539C230.965 18.0933 232.309 15.704 234.571 13.912C236.875 12.0773 239.691 11.16 243.019 11.16C246.645 11.16 249.547 12.248 251.723 14.424C253.941 16.6 255.051 19.4587 255.051 23V47H251.851V39.832H251.275L252.299 38.552C252.299 41.2827 251.232 43.48 249.099 45.144C247.008 46.808 244.235 47.64 240.779 47.64ZM241.675 44.824C244.704 44.824 247.157 44.0347 249.035 42.456C250.912 40.8773 251.851 38.8293 251.851 36.312V29.976H239.691C237.387 29.976 235.531 30.616 234.123 31.896C232.715 33.1333 232.01 34.7973 232.01 36.888C232.01 39.2347 232.885 41.1547 234.635 42.648C236.427 44.0987 238.773 44.824 241.675 44.824ZM268.978 47V11.8H272.178V17.88H273.65L271.73 21.144C271.73 18.1147 272.647 15.704 274.482 13.912C276.359 12.0773 278.855 11.16 281.97 11.16C285.426 11.16 288.199 12.2693 290.29 14.488C292.38 16.7067 293.426 19.7147 293.426 23.512V47H290.226V23.96C290.226 20.8027 289.415 18.3493 287.794 16.6C286.215 14.808 284.06 13.912 281.33 13.912C278.514 13.912 276.274 14.808 274.61 16.6C272.988 18.392 272.178 20.8453 272.178 23.96V47H268.978ZM323.353 47C320.665 47 318.595 46.3173 317.145 44.952C315.737 43.5867 315.033 41.6027 315.033 39V14.68H304.793V11.8H315.033V1.88H318.233V11.8H332.632V14.68H318.233V39C318.233 42.4133 319.939 44.12 323.353 44.12H331.993V47H323.353Z" fill="white"/>
</svg>
